HIERARCHY
ROOT Model_Hips
{
	OFFSET 0.000000 96.915077 0.000000
	CHANNELS 6 Xposition Yposition Zposition Xrotation Yrotation Zrotation
	JOINT Model_Spine
	{
		OFFSET 0.000000 11.137703 -1.289900
		CHANNELS 3 Xrotation Yrotation Zrotation
		JOINT Model_Spine1
		{
			OFFSET 0.000000 12.993942 -1.504922
			CHANNELS 3 Xrotation Yrotation Zrotation
			JOINT Model_Spine2
			{
				OFFSET 0.000000 14.850220 -1.719911
				CHANNELS 3 Xrotation Yrotation Zrotation
				JOINT Model_Neck
				{
					OFFSET 0.000000 16.706543 -1.934903
					CHANNELS 3 Xrotation Yrotation Zrotation
					JOINT Model_Head
					{
						OFFSET 0.000000 10.471298 2.002100
						CHANNELS 3 Xrotation Yrotation Zrotation
						JOINT Model_HeadTop_End
						{
							OFFSET 0.000000 20.842606 3.985100
							CHANNELS 3 Xrotation Yrotation Zrotation
							End Site
							{
								OFFSET 0.000000 21.220154 0.000000
							}
						}
					}
				}
				JOINT Model_LeftShoulder
				{
					OFFSET 7.008500 14.768600 -1.919946
					CHANNELS 3 Xrotation Yrotation Zrotation
					JOINT Model_LeftArm
					{
						OFFSET 14.126271 -3.718048 0.029937
						CHANNELS 3 Xrotation Yrotation Zrotation
						JOINT Model_LeftForeArm
						{
							OFFSET 28.282801 0.000000 0.000000
							CHANNELS 3 Xrotation Yrotation Zrotation
							JOINT Model_LeftHand
							{
								OFFSET 26.204689 0.000000 0.000000
								CHANNELS 3 Xrotation Yrotation Zrotation
								End Site
								{
									OFFSET 26.204704 0.000000 0.000000
								}
							}
						}
					}
				}
				JOINT Model_RightShoulder
				{
					OFFSET -7.008500 14.768555 -1.949840
					CHANNELS 3 Xrotation Yrotation Zrotation
					JOINT Model_RightArm
					{
						OFFSET -14.126281 -3.718018 -0.029932
						CHANNELS 3 Xrotation Yrotation Zrotation
						JOINT Model_RightForeArm
						{
							OFFSET -28.283798 0.000000 -0.000001
							CHANNELS 3 Xrotation Yrotation Zrotation
							JOINT Model_RightHand
							{
								OFFSET -26.204193 0.000000 -0.000001
								CHANNELS 3 Xrotation Yrotation Zrotation
								End Site
								{
									OFFSET -26.204208 0.000000 -0.000001
								}
							}
						}
					}
				}
			}
		}
	}
	JOINT Model_LeftUpLeg
	{
		OFFSET 8.327700 -6.193199 -0.402800
		CHANNELS 3 Xrotation Yrotation Zrotation
		JOINT Model_LeftLeg
		{
			OFFSET 0.735802 -42.108742 -0.610721
			CHANNELS 3 Xrotation Yrotation Zrotation
			JOINT Model_LeftFoot
			{
				OFFSET -0.735806 -36.833748 -0.172876
				CHANNELS 3 Xrotation Yrotation Zrotation
				JOINT Model_LeftToeBase
				{
					OFFSET -0.565857 -11.977769 16.297714
					CHANNELS 3 Xrotation Yrotation Zrotation
					JOINT Model_LeftToe_End
					{
						OFFSET -0.111712 -0.312793 7.857784
						CHANNELS 3 Xrotation Yrotation Zrotation
						End Site
						{
							OFFSET -0.111712 -0.312793 7.857784
						}
					}
				}
			}
		}
	}
	JOINT Model_RightUpLeg
	{
		OFFSET -8.327700 -6.193199 -0.516500
		CHANNELS 3 Xrotation Yrotation Zrotation
		JOINT Model_RightLeg
		{
			OFFSET -0.735785 -42.108738 -0.434061
			CHANNELS 3 Xrotation Yrotation Zrotation
			JOINT Model_RightFoot
			{
				OFFSET 0.735776 -36.833748 -0.021630
				CHANNELS 3 Xrotation Yrotation Zrotation
				JOINT Model_RightToeBase
				{
					OFFSET 0.565817 -11.977745 15.903093
					CHANNELS 3 Xrotation Yrotation Zrotation
					JOINT Model_RightToe_End
					{
						OFFSET 0.111702 -0.312791 7.811342
						CHANNELS 3 Xrotation Yrotation Zrotation
						End Site
						{
							OFFSET 0.111702 -0.312791 7.811342
						}
					}
				}
			}
		}
	}
}
MOTION
Frames: 5
Frame Time: 0.033333
0.039470 96.809792 0.247468 -3.737258 0.072625 -3.094934 3.304822 1.531388 2.414712 1.151890 0.339457 1.552798 1.126015 0.361544 1.555887 5.626309 -0.078963 0.454682 5.621603 -0.099935 0.491957 -0.000000 -0.000000 -0.000000 1.049455 -17.442073 -12.319439 3.916266 -19.989264 -69.765253 -0.000019 -1.459366 -0.000002 0.000001 0.000000 -0.000000 1.203178 15.343668 14.705947 13.158865 27.555128 58.785177 0.000007 6.693751 -0.000006 0.000001 0.000000 0.000000 -9.633353 14.978342 10.049560 13.556846 1.944016 4.204731 -1.144279 0.719975 -7.535581 -4.928526 0.000014 -0.000002 0.000001 0.000000 -0.000000 2.865398 -10.297402 3.945433 6.753794 -9.754557 -3.280460 -5.354705 -1.720539 3.127709 -7.293313 0.000008 0.000000 0.000000 -0.000002 0.000000 
1.505529 96.851135 0.372652 -3.740808 2.379483 -2.914463 3.104894 2.013924 2.434371 1.086421 0.486412 1.476714 1.062279 0.507437 1.479810 5.542796 0.350128 0.555937 5.519718 0.340533 0.560164 0.000001 0.000000 0.000000 1.058598 -17.279393 -12.453270 3.986793 -19.723723 -70.061758 -0.000002 -2.229974 -0.000003 0.000002 -0.000000 -0.000000 1.231256 15.103753 14.734113 12.858639 26.644150 58.525453 0.000003 6.469174 0.000001 0.000001 -0.000000 0.000000 -10.042343 14.746155 8.366796 14.481280 1.971942 5.180881 -1.939266 -0.980823 -6.880317 -4.692488 -0.000015 -0.000003 0.000000 -0.000000 -0.000000 -1.895109 -12.220989 1.311074 17.024813 -8.321780 -2.312052 -8.596888 -2.938595 2.805442 -10.497394 0.000008 0.000003 -0.000001 -0.000000 0.000000 
3.210237 96.870209 0.568463 -3.750977 4.779428 -2.723119 2.911378 2.295325 2.428916 1.031284 0.576219 1.400200 1.008832 0.595908 1.403373 5.447147 0.783336 0.657954 5.405947 0.785055 0.629285 0.000001 -0.000001 -0.000000 1.107595 -16.896092 -12.663533 3.962720 -19.386143 -70.373058 -0.000002 -2.909381 0.000009 -0.000002 -0.000000 0.000000 1.321752 14.602311 14.715923 12.213737 25.482213 58.420329 0.000010 6.547751 -0.000005 0.000002 0.000000 -0.000001 -10.333257 14.840601 6.480516 15.485763 1.315211 6.288405 -2.862091 -2.318761 -6.096267 -4.550450 0.000006 -0.000001 0.000001 -0.000001 -0.000000 -6.031335 -13.590546 -1.879225 24.943125 -6.650259 -1.446102 -8.245135 -4.316173 4.300872 -15.276579 0.000010 0.000002 0.000001 -0.000002 -0.000000 
5.082386 96.856606 0.865304 -3.768748 7.275261 -2.511742 2.767045 2.295551 2.334864 0.998679 0.585071 1.312345 0.977996 0.603028 1.315581 5.346585 1.229249 0.763135 5.286878 1.242570 0.700678 0.000001 -0.000001 -0.000000 1.196806 -16.288106 -12.974308 3.770616 -19.132400 -70.481323 0.000001 -3.277804 0.000017 0.000001 0.000000 0.000001 1.472231 13.817883 14.668567 11.171623 24.057511 58.459070 0.000009 6.948057 0.000006 0.000008 -0.000000 0.000000 -10.436014 15.390018 4.502368 16.551703 -0.203172 7.447212 -3.890293 -3.252150 -5.156843 -4.484434 0.000001 0.000002 0.000000 0.000001 0.000000 -9.170286 -13.960549 -5.046984 30.082537 -4.931750 -0.951466 -5.483477 -3.768603 7.601047 -19.221744 0.000005 0.000005 -0.000000 -0.000002 -0.000000 
6.954406 96.815681 1.285203 -3.794926 9.871523 -2.307371 2.725077 1.968998 2.126438 1.000212 0.499257 1.201097 0.981445 0.514988 1.204245 5.260357 1.716158 0.878635 5.179714 1.742573 0.778288 0.000001 0.000002 0.000000 1.324144 -15.486242 -13.392954 3.326295 -19.180264 -70.118080 0.000017 -3.057834 0.000002 -0.000003 0.000000 -0.000001 1.672589 12.772400 14.612715 9.752292 22.447644 58.602886 0.000003 7.595868 0.000016 0.000002 0.000000 -0.000000 -10.306263 16.387007 2.673306 17.622494 -2.479313 8.511211 -4.960640 -3.936724 -4.093107 -4.451949 -0.000006 0.000001 0.000001 -0.000001 0.000000 -10.575663 -13.330828 -6.655390 32.015883 -3.172151 -1.233802 -4.327233 -0.192042 8.447419 -19.434123 0.000005 -0.000000 0.000001 -0.000000 0.000000 
